<?xml version="1.0" encoding="utf-8"?>
<!-- Generator: Adobe Illustrator 16.0.3, SVG Export Plug-In . SVG Version: 6.00 Build 0)  -->
<!DOCTYPE svg PUBLIC "-//W3C//DTD SVG 1.1//EN" "http://www.w3.org/Graphics/SVG/1.1/DTD/svg11.dtd">
<svg version="1.1" id="Warstwa_1" xmlns="http://www.w3.org/2000/svg" xmlns:xlink="http://www.w3.org/1999/xlink" x="0px" y="0px"
	 width="119.036px" height="19.834px" viewBox="0 0 119.036 19.834" enable-background="new 0 0 119.036 19.834"
	 xml:space="preserve">
<g>
	<defs>
		<path id="SVGID_1_" d="M12.343,5.219v2.534h5.935l-6.009,8.32c-0.308,0.432-0.432,0.791-0.432,1.128
			c0,0.651,0.498,1.069,1.341,1.069h9.278v-2.645h-6.009l5.965-8.232c0.292-0.409,0.425-0.791,0.425-1.105
			c0-0.651-0.513-1.069-1.334-1.069H12.343z M0.154,8.839c0,2.814,2.066,3.459,4.104,4.082c1.084,0.33,2.25,0.447,2.25,1.687
			c0,1.29-1.657,1.254-2.646,1.254c-1.012,0-2.579-0.213-3.554-0.397L0,17.883c1.348,0.358,3.165,0.563,4.653,0.563
			c2.888,0,5.145-0.857,5.145-3.949c0-2.917-1.817-3.357-3.994-4.098c-1.063-0.359-2.419-0.558-2.419-1.7
			c0-1.114,1.569-1.121,2.603-1.121c1.172,0,2.278,0.175,3.312,0.38l0.307-2.373C7.981,5.211,6.684,5.042,4.822,5.042
			C2.213,5.042,0.154,5.892,0.154,8.839 M28.055,11.741c0-3.261,0.528-4.083,2.58-4.083c2.06,0,2.603,0.924,2.603,4.083
			c0,3.174-0.543,4.083-2.603,4.083C28.583,15.824,28.055,15.017,28.055,11.741 M24.787,11.741c0,4.881,1.553,6.705,5.848,6.705
			c4.302,0,5.855-1.884,5.855-6.705c0-4.81-1.553-6.699-5.855-6.699C26.34,5.042,24.787,6.874,24.787,11.741"/>
	</defs>
	<clipPath id="SVGID_2_">
		<use xlink:href="#SVGID_1_"  overflow="visible"/>
	</clipPath>
	
		<linearGradient id="SVGID_3_" gradientUnits="userSpaceOnUse" x1="-7900.5688" y1="4127.7793" x2="-7899.5688" y2="4127.7793" gradientTransform="matrix(43.1101 19.3744 19.3744 -43.1101 260620.6563 331021.375)">
		<stop  offset="0" style="stop-color:#AFCA0B"/>
		<stop  offset="1" style="stop-color:#00909E"/>
	</linearGradient>
	<polygon clip-path="url(#SVGID_2_)" fill="url(#SVGID_3_)" points="6.132,-8.602 41.502,7.294 30.358,32.09 -5.012,16.193 	"/>
</g>
<g>
	<defs>
		<polygon id="SVGID_4_" points="38.715,0.176 38.715,18.271 41.954,18.271 41.954,11.777 46.454,18.271 50.396,18.271 
			45.237,11.228 50.14,5.219 46.409,5.219 41.954,10.928 41.954,0.176 		"/>
	</defs>
	<clipPath id="SVGID_5_">
		<use xlink:href="#SVGID_4_"  overflow="visible"/>
	</clipPath>
	
		<linearGradient id="SVGID_6_" gradientUnits="userSpaceOnUse" x1="-7900.5688" y1="4128.0566" x2="-7899.5688" y2="4128.0566" gradientTransform="matrix(43.1101 19.3744 19.3744 -43.1101 260620.6563 331021.375)">
		<stop  offset="0" style="stop-color:#AFCA0B"/>
		<stop  offset="1" style="stop-color:#00909E"/>
	</linearGradient>
	<polygon clip-path="url(#SVGID_5_)" fill="url(#SVGID_6_)" points="40.678,-4.191 57.162,3.217 48.433,22.639 31.949,15.23 	"/>
</g>
<g>
	<defs>
		<rect id="SVGID_7_" width="119.036" height="19.834"/>
	</defs>
	<clipPath id="SVGID_8_">
		<use xlink:href="#SVGID_7_"  overflow="visible"/>
	</clipPath>
	<path clip-path="url(#SVGID_8_)" fill="#878787" d="M104.262,5.219h-2.258v6.091h2.258V5.219z M60.536,7.196l0.213-1.686
		c-1.466-0.321-2.711-0.468-4.427-0.468c-2.609,0-4.558,0.791-4.558,3.583c0,1.335,0.484,2.136,1.215,2.684h5.651
		c-0.494-0.202-1.054-0.385-1.664-0.581c-1.502-0.476-2.961-0.695-2.961-2.264c0-1.584,1.972-1.605,3.262-1.605
		C58.441,6.859,59.54,7.013,60.536,7.196 M67.74,6.933h2.815V5.219H67.74V1.532l-2.249,0.366v3.32H63.19v1.714h2.301v4.377h2.249
		V6.933z M75.518,5.219h-2.242v6.091h2.242V5.219z M84.188,5.219h-2.235v6.091h2.235V5.219z M98.311,11.31V0.176h-2.235v5.292
		c-1.033-0.257-2.169-0.425-3.254-0.425c-3.813,0-5.465,1.609-5.565,6.267h2.254c0.038-2.896,0.527-4.479,3.92-4.479
		c0.843,0,1.913,0.198,2.646,0.447v4.032H98.311z M104.488,1.488c0-1.107-0.315-1.488-1.363-1.488c-1.04,0-1.354,0.381-1.354,1.488
		c0,1.098,0.293,1.472,1.354,1.472C104.195,2.96,104.488,2.586,104.488,1.488 M119.018,11.31c-0.097-4.472-1.643-6.267-5.748-6.267
		c-4.103,0-5.653,1.729-5.749,6.267h2.258c0.067-3.51,0.931-4.436,3.491-4.436c2.598,0,3.438,1.069,3.505,4.436H119.018z"/>
	<path clip-path="url(#SVGID_8_)" fill="#878787" d="M116.34,17.034c0-0.529,0.182-0.692,0.633-0.789
		c0.391-0.084,0.941-0.096,1.364-0.107v0.849c0,0.189-0.005,0.423-0.019,0.605c-0.312,0.13-0.684,0.165-1.002,0.165
		C116.652,17.757,116.34,17.618,116.34,17.034 M115.915,14.746c0.436-0.058,0.923-0.112,1.411-0.112
		c0.771,0,1.011,0.284,1.011,0.911v0.101c-0.573,0.021-1.146,0.042-1.63,0.113c-0.764,0.116-1.073,0.572-1.073,1.289
		c0,0.876,0.475,1.263,1.59,1.263c0.712,0,1.309-0.098,1.784-0.347c0.02-0.239,0.028-0.476,0.028-0.731v-1.895
		c0-1.04-0.72-1.276-1.617-1.276c-0.595,0-1.104,0.071-1.563,0.146L115.915,14.746z M111.939,15.417
		c0-0.192,0.005-0.425,0.021-0.605c0.222-0.105,0.645-0.175,0.951-0.175c0.95,0,1.081,0.318,1.081,1.045v2.573h0.71v-2.673
		c0-0.848-0.144-1.521-1.577-1.521c-0.763,0-1.399,0.137-1.869,0.353c-0.018,0.239-0.027,0.476-0.027,0.732v3.108h0.711V15.417z
		 M104.441,14.116l0.98,3.704c0.088,0.332,0.27,0.49,0.537,0.49s0.423-0.163,0.539-0.488l0.904-2.509l0.88,2.511
		c0.114,0.326,0.275,0.486,0.542,0.486c0.26,0,0.439-0.156,0.527-0.486l0.997-3.708h-0.702l-0.844,3.406l-0.888-2.618
		c-0.104-0.31-0.253-0.46-0.502-0.46c-0.244,0-0.383,0.15-0.492,0.46l-0.923,2.625l-0.827-3.413H104.441z M102.043,17.067
		l-1.237-2.951h-0.759l1.673,3.853l-0.634,1.811h0.724l1.926-5.663h-0.724L102.043,17.067z M97.766,13.064v1.052h-0.73v0.544h0.73
		v2.546c0,0.758,0.339,1.104,1.141,1.104c0.16,0,0.365-0.023,0.527-0.052l-0.056-0.522c-0.089,0.007-0.175,0.012-0.265,0.012
		c-0.449,0-0.635-0.116-0.635-0.618v-2.47h0.893v-0.544h-0.893v-1.168L97.766,13.064z M93.558,17.034
		c0-0.529,0.181-0.692,0.632-0.789c0.39-0.084,0.94-0.096,1.363-0.107v0.849c0,0.189-0.004,0.423-0.018,0.605
		c-0.312,0.13-0.684,0.165-1.002,0.165C93.868,17.757,93.558,17.618,93.558,17.034 M93.131,14.746
		c0.436-0.058,0.924-0.112,1.411-0.112c0.772,0,1.011,0.284,1.011,0.911v0.101c-0.573,0.021-1.146,0.042-1.629,0.113
		c-0.765,0.116-1.073,0.572-1.073,1.289c0,0.876,0.474,1.263,1.59,1.263c0.711,0,1.308-0.098,1.785-0.347
		c0.018-0.239,0.027-0.476,0.027-0.731v-1.895c0-1.04-0.721-1.276-1.618-1.276c-0.595,0-1.104,0.071-1.563,0.146L93.131,14.746z
		 M89.154,16.077c0-0.92,0.172-1.461,1.132-1.461c0.804,0,1.078,0.396,1.078,1.065c0,0.072-0.002,0.178-0.009,0.246
		c-0.337,0.045-0.894,0.089-1.23,0.105L89.154,16.077z M90.193,18.311c0.79,0,1.296-0.072,1.759-0.145l-0.063-0.548
		c-0.426,0.055-0.928,0.111-1.474,0.111c-0.855,0-1.186-0.318-1.246-1.144l0.865-0.037c0.576-0.025,1.559-0.119,2.033-0.2
		c0.009-0.113,0.012-0.243,0.012-0.353c0-1.178-0.351-1.935-1.794-1.935c-1.367,0-1.825,0.621-1.825,2.123
		C88.461,17.411,88.821,18.311,90.193,18.311 M86.593,18.255v-2.84c0-0.19,0.005-0.423,0.019-0.605
		c0.234-0.112,0.593-0.165,0.888-0.165c0.121,0,0.23,0.004,0.328,0.016l0.058-0.583c-0.12-0.011-0.249-0.016-0.386-0.016
		c-0.532,0-1.129,0.097-1.589,0.346c-0.019,0.239-0.028,0.476-0.028,0.731v3.116H86.593z M82.46,12.517h-0.709v5.738h0.709v-1.992
		l1.735,1.992h0.89l-1.938-2.161l1.831-1.978h-0.829l-1.689,1.871V12.517z M75.801,17.034c0-0.529,0.183-0.692,0.634-0.789
		c0.39-0.084,0.94-0.096,1.363-0.107v0.849c0,0.189-0.005,0.423-0.019,0.605c-0.312,0.13-0.684,0.165-1.001,0.165
		C76.113,17.757,75.801,17.618,75.801,17.034 M75.376,14.746c0.436-0.058,0.923-0.112,1.411-0.112c0.772,0,1.011,0.284,1.011,0.911
		v0.101c-0.573,0.021-1.146,0.042-1.629,0.113c-0.765,0.116-1.074,0.572-1.074,1.289c0,0.876,0.475,1.263,1.591,1.263
		c0.711,0,1.308-0.098,1.784-0.347c0.019-0.239,0.027-0.476,0.027-0.731v-1.895c0-1.04-0.72-1.276-1.617-1.276
		c-0.595,0-1.104,0.071-1.563,0.146L75.376,14.746z M73.799,13.401c0.34,0,0.433-0.119,0.433-0.467c0-0.352-0.101-0.473-0.433-0.473
		c-0.33,0-0.43,0.121-0.43,0.473C73.369,13.282,73.462,13.401,73.799,13.401 M73.443,18.417c0,0.732-0.396,0.834-0.869,0.876
		l-0.058,0.535c0.058,0.004,0.113,0.006,0.169,0.006c1.016,0,1.472-0.435,1.472-1.561v-4.157h-0.714V18.417z M72.48,17.622
		c-0.217,0.044-0.479,0.091-0.705,0.091c-1.24,0-1.313-0.522-1.313-1.571c0-1.111,0.116-1.492,1.317-1.492
		c0.231,0,0.497,0.039,0.702,0.075l0.058-0.533c-0.27-0.075-0.586-0.13-0.984-0.13c-1.505,0-1.815,0.727-1.815,2.08
		c0,1.157,0.242,2.169,1.629,2.169c0.469,0,0.836-0.059,1.178-0.133L72.48,17.622z M65.949,15.417c0-0.192,0.004-0.425,0.021-0.605
		c0.222-0.105,0.645-0.175,0.951-0.175c0.95,0,1.081,0.318,1.081,1.045v2.573h0.71v-2.673c0-0.848-0.144-1.521-1.578-1.521
		c-0.762,0-1.398,0.137-1.867,0.353c-0.02,0.239-0.028,0.476-0.028,0.732v3.108h0.711V15.417z M61.314,16.077
		c0-0.92,0.172-1.461,1.131-1.461c0.805,0,1.079,0.396,1.079,1.065c0,0.072-0.003,0.178-0.009,0.246
		c-0.338,0.045-0.894,0.089-1.23,0.105L61.314,16.077z M62.353,18.311c0.791,0,1.297-0.072,1.76-0.145l-0.063-0.548
		c-0.425,0.055-0.927,0.111-1.473,0.111c-0.856,0-1.186-0.318-1.246-1.144l0.864-0.037c0.577-0.025,1.56-0.119,2.034-0.2
		c0.009-0.113,0.012-0.243,0.012-0.353c0-1.178-0.351-1.935-1.795-1.935c-1.366,0-1.824,0.621-1.824,2.123
		C60.621,17.411,60.981,18.311,62.353,18.311 M57.972,14.625c0.296,0,0.651,0.054,0.886,0.165c0.014,0.184,0.021,0.416,0.021,0.607
		v2.111c-0.232,0.079-0.571,0.143-0.841,0.143c-1.111,0-1.244-0.526-1.244-1.512C56.794,15.22,56.98,14.625,57.972,14.625
		 M56.355,19.678c0.46,0.077,1.02,0.156,1.617,0.156c0.895,0,1.615-0.237,1.615-1.278v-3.417c0-0.256-0.009-0.492-0.027-0.731
		c-0.457-0.249-1.058-0.346-1.587-0.346c-1.319,0-1.896,0.502-1.896,2.078c0,1.569,0.537,2.077,1.769,2.077
		c0.346,0,0.706-0.053,1.034-0.135v0.265c0,0.631-0.239,0.913-1.013,0.913c-0.481,0-1.016-0.058-1.45-0.121L56.355,19.678z
		 M52.397,17.034c0-0.529,0.182-0.692,0.632-0.789c0.391-0.084,0.942-0.096,1.365-0.107v0.849c0,0.189-0.005,0.423-0.019,0.605
		c-0.311,0.13-0.683,0.165-1.002,0.165C52.709,17.757,52.397,17.618,52.397,17.034 M51.972,14.746
		c0.435-0.058,0.923-0.112,1.411-0.112c0.771,0,1.011,0.284,1.011,0.911v0.101c-0.574,0.021-1.146,0.042-1.63,0.113
		c-0.764,0.116-1.073,0.572-1.073,1.289c0,0.876,0.474,1.263,1.589,1.263c0.712,0,1.309-0.098,1.785-0.347
		c0.019-0.239,0.028-0.476,0.028-0.731v-1.895c0-1.04-0.72-1.276-1.617-1.276c-0.595,0-1.104,0.071-1.564,0.146L51.972,14.746z"/>
</g>
</svg>
